<svg version="1.1" id="Layer_1" xmlns="http://www.w3.org/2000/svg" xmlns:xlink="http://www.w3.org/1999/xlink" x="0px" y="0px"
	 width="100%" viewBox="0 0 300 300" enable-background="new 0 0 300 300" xml:space="preserve">
<path fill="#2D384C" opacity="1.000000" stroke="none" 
	d="
M301.000000,132.000000 
	C301.000000,144.354233 301.000000,156.708450 300.805878,169.869812 
	C294.817596,208.070877 278.439545,239.725479 249.759125,264.770142 
	C235.545410,277.182037 219.722885,286.930756 201.794037,292.779388 
	C191.407425,296.167664 180.611649,298.301605 170.000000,301.000000 
	C157.645767,301.000000 145.291550,301.000000 132.135986,300.794739 
	C120.877251,298.007965 110.078209,296.360840 100.021362,292.683746 
	C55.756325,276.499237 25.340929,246.010986 9.209023,201.713165 
	C5.596893,191.794373 3.691267,181.254135 1.000001,171.000000 
	C1.000000,157.979111 1.000000,144.958206 1.194921,131.135468 
	C3.802620,120.508942 5.398180,110.392159 8.785544,100.915871 
	C17.956345,75.260178 32.617569,53.183807 53.790852,35.654831 
	C69.610588,22.557961 87.122826,12.618983 106.863388,6.872461 
	C114.805717,4.560432 122.948463,2.936891 131.000000,1.000000 
	C144.020889,1.000000 157.041794,1.000000 170.863892,1.205245 
	C188.678406,4.113996 204.946167,9.015886 220.270645,17.076336 
	C255.558868,35.637413 279.908783,63.694145 293.069122,101.223854 
	C296.562042,111.184753 298.401398,121.725494 301.000000,132.000000 
M120.137848,217.140579 
	C140.888397,181.570145 161.638962,145.999695 182.649536,109.983513 
	C174.289337,109.983513 166.807419,110.187569 159.344849,109.896049 
	C155.701309,109.753708 153.762192,111.035347 151.890137,114.135574 
	C132.182236,146.772995 112.298248,179.304047 92.474800,211.871719 
	C91.645752,213.233734 90.933800,214.667007 89.980362,216.408554 
	C97.879219,220.763611 105.431427,224.927536 113.409157,229.610321 
	C124.367401,235.936096 135.382919,242.165878 146.248810,248.646500 
	C149.485245,250.576797 152.111450,250.723892 155.446976,248.783081 
	C181.349686,233.711411 207.310974,218.739182 233.351028,203.906265 
	C236.875717,201.898529 238.088409,199.517776 238.068619,195.527786 
	C237.920731,165.718948 237.928711,135.908783 238.061783,106.099808 
	C238.078751,102.299286 236.878952,100.016678 233.546921,98.115517 
	C207.518600,83.264542 181.544861,68.316605 155.656418,53.223377 
	C152.135849,51.170837 149.440750,51.380116 146.035919,53.363884 
	C122.444366,67.109116 98.696541,80.586319 75.116592,94.351204 
	C61.417496,102.348106 64.041893,97.841858 63.977093,113.855888 
	C63.871326,139.994186 64.088341,166.133789 64.005043,193.097473 
	C64.679504,196.172836 64.320160,200.526230 66.231606,202.072388 
	C71.039696,205.961639 76.872917,208.583572 82.689911,211.941467 
	C104.022957,177.919891 125.087181,144.327057 146.765594,109.754700 
	C141.153214,109.754700 136.862869,109.607216 132.585999,109.784538 
	C122.821083,110.189377 115.410194,114.099258 109.994629,122.824692 
	C99.745781,139.337387 88.721527,155.368805 77.895805,170.593216 
	C77.843796,150.955276 77.725792,131.316879 77.866608,111.680321 
	C77.877724,110.130035 79.318161,107.960236 80.716438,107.143761 
	C103.133125,94.054329 125.627953,81.097618 148.201950,68.281441 
	C149.590439,67.493134 152.181686,67.426956 153.546234,68.200935 
	C176.270111,81.089935 198.907211,94.132927 221.476303,107.291397 
	C222.753159,108.035835 224.031006,110.069618 224.037003,111.508606 
	C224.123642,132.308853 223.992416,153.110001 223.409286,173.490845 
	C211.486572,155.293747 199.563843,137.096634 187.142395,118.138359 
	C182.728836,125.180214 178.940872,131.590775 174.760757,137.734497 
	C172.749100,140.691101 173.011963,142.881485 174.816559,145.818893 
	C186.240952,164.414474 197.473511,183.127899 208.120926,202.290176 
	C206.461197,203.170822 204.801468,204.051468 202.808609,204.222412 
	C191.323883,186.602554 179.839142,168.982712 167.964722,150.764984 
	C162.379517,159.741272 157.272034,167.726028 152.483887,175.897919 
	C151.803528,177.059067 152.132217,179.462906 152.910721,180.726898 
	C160.943069,193.768387 169.164062,206.693665 176.906998,220.142792 
	C169.455750,224.510910 161.938004,228.771255 154.588989,233.305099 
	C151.985138,234.911514 150.004318,234.899017 147.356766,233.332962 
	C138.351364,228.006119 129.178818,222.961823 120.137848,217.140579 
z"/>
<path fill="#95B9D9" opacity="1.000000" stroke="none" 
	d="
M223.913422,173.910934 
	C223.992416,153.110001 224.123642,132.308853 224.037003,111.508606 
	C224.031006,110.069618 222.753159,108.035835 221.476303,107.291397 
	C198.907211,94.132927 176.270111,81.089935 153.546234,68.200935 
	C152.181686,67.426956 149.590439,67.493134 148.201950,68.281441 
	C125.627953,81.097618 103.133125,94.054329 80.716438,107.143761 
	C79.318161,107.960236 77.877724,110.130035 77.866608,111.680321 
	C77.725792,131.316879 77.843796,150.955276 77.910057,171.409393 
	C73.339264,178.907990 68.754219,185.590408 64.169174,192.272842 
	C64.088341,166.133789 63.871326,139.994186 63.977093,113.855888 
	C64.041893,97.841858 61.417496,102.348106 75.116592,94.351204 
	C98.696541,80.586319 122.444366,67.109116 146.035919,53.363884 
	C149.440750,51.380116 152.135849,51.170837 155.656418,53.223377 
	C181.544861,68.316605 207.518600,83.264542 233.546921,98.115517 
	C236.878952,100.016678 238.078751,102.299286 238.061783,106.099808 
	C237.928711,135.908783 237.920731,165.718948 238.068619,195.527786 
	C238.088409,199.517776 236.875717,201.898529 233.351028,203.906265 
	C207.310974,218.739182 181.349686,233.711411 155.446976,248.783081 
	C152.111450,250.723892 149.485245,250.576797 146.248810,248.646500 
	C135.382919,242.165878 124.367401,235.936096 113.356216,229.044998 
	C115.558884,224.923004 117.814484,221.366318 120.070084,217.809631 
	C129.178818,222.961823 138.351364,228.006119 147.356766,233.332962 
	C150.004318,234.899017 151.985138,234.911514 154.588989,233.305099 
	C161.938004,228.771255 169.455750,224.510910 177.475800,219.793182 
	C186.410309,214.606415 194.776016,209.769272 203.141739,204.932114 
	C204.801468,204.051468 206.461197,203.170822 208.720581,201.943497 
	C224.806595,193.132065 224.807434,193.132034 224.073196,175.394775 
	C224.052673,174.898804 223.968109,174.405487 223.913422,173.910934 
z"/>
<path fill="#FCFCFD" opacity="1.000000" stroke="none" 
	d="
M120.103966,217.475113 
	C117.814484,221.366318 115.558884,224.923004 113.143456,228.785568 
	C105.431427,224.927536 97.879219,220.763611 89.980362,216.408554 
	C90.933800,214.667007 91.645752,213.233734 92.474800,211.871719 
	C112.298248,179.304047 132.182236,146.772995 151.890137,114.135574 
	C153.762192,111.035347 155.701309,109.753708 159.344849,109.896049 
	C166.807419,110.187569 174.289337,109.983513 182.649536,109.983513 
	C161.638962,145.999695 140.888397,181.570145 120.103966,217.475113 
z"/>
<path fill="#FCFCFD" opacity="1.000000" stroke="none" 
	d="
M64.087105,192.685150 
	C68.754219,185.590408 73.339264,178.907990 77.971878,171.912872 
	C88.721527,155.368805 99.745781,139.337387 109.994629,122.824692 
	C115.410194,114.099258 122.821083,110.189377 132.585999,109.784538 
	C136.862869,109.607216 141.153214,109.754700 146.765594,109.754700 
	C125.087181,144.327057 104.022957,177.919891 82.689911,211.941467 
	C76.872917,208.583572 71.039696,205.961639 66.231606,202.072388 
	C64.320160,200.526230 64.679504,196.172836 64.087105,192.685150 
z"/>
<path fill="#24A1EC" opacity="1.000000" stroke="none" 
	d="
M223.661346,173.700897 
	C223.968109,174.405487 224.052673,174.898804 224.073196,175.394775 
	C224.807434,193.132034 224.806595,193.132065 209.044815,201.699615 
	C197.473511,183.127899 186.240952,164.414474 174.816559,145.818893 
	C173.011963,142.881485 172.749100,140.691101 174.760757,137.734497 
	C178.940872,131.590775 182.728836,125.180214 187.142395,118.138359 
	C199.563843,137.096634 211.486572,155.293747 223.661346,173.700897 
z"/>
<path fill="#24A1EC" opacity="1.000000" stroke="none" 
	d="
M202.975174,204.577271 
	C194.776016,209.769272 186.410309,214.606415 177.688568,219.547440 
	C169.164062,206.693665 160.943069,193.768387 152.910721,180.726898 
	C152.132217,179.462906 151.803528,177.059067 152.483887,175.897919 
	C157.272034,167.726028 162.379517,159.741272 167.964722,150.764984 
	C179.839142,168.982712 191.323883,186.602554 202.975174,204.577271 
z"/>
</svg>