<svg xmlns="http://www.w3.org/2000/svg" xmlns:xlink="http://www.w3.org/1999/xlink" version="1.1" id="Layer_1" x="0px" y="0px" enable-background="new 0 0 866 650" xml:space="preserve" viewBox="186.54 79.12 495.19 494.55">

<path fill="#557FEE" opacity="1.000000" stroke="none" d=" M420.621094,79.711029   C443.683411,78.077866 466.136810,79.775238 488.005066,85.300713   C580.794250,108.745804 643.531250,165.826355 670.694580,257.558929   C695.503967,341.342041 678.093018,418.666443 622.266235,486.034851   C581.551331,535.167175 528.388306,563.906677 465.094604,571.592957   C390.470367,580.655212 324.256165,559.965027 268.064636,509.665527   C224.381165,470.562408 197.931778,421.485748 189.462112,363.583832   C179.982910,298.780243 193.473343,238.656265 231.413956,184.817032   C271.387970,128.092346 326.134857,94.335487 394.352966,82.376160   C402.846924,80.887093 411.551300,80.598427 420.621094,79.711029  M369.857025,412.060303   C369.857025,412.060303 369.846252,412.136292 369.978485,412.812347   C372.307343,415.889832 374.636200,418.967316 377.000000,422.000000   C377.000000,422.000000 376.952759,422.031464 377.063477,422.707397   C378.996918,425.228455 380.930328,427.749512 383.063934,430.909180   C384.222137,432.531586 385.370514,434.161102 386.539948,435.775391   C404.293976,460.282410 422.050781,484.787445 439.923737,509.886139   C441.226349,512.469910 441.828735,510.842163 442.779022,509.528534   C453.001709,495.397583 463.293518,481.316620 473.536224,467.200104   C499.312256,431.675415 525.076050,396.141846 550.831299,360.602051   C552.486084,358.318542 554.025330,355.951355 555.618347,353.623077   C552.518127,354.233826 550.185913,355.465942 547.906067,356.788330   C526.036926,369.472626 504.170197,382.160980 482.316345,394.871552   C468.800842,402.732361 455.308899,410.633698 441.152954,418.207153   C416.244080,403.811798 391.343964,389.401306 366.422089,375.028503   C356.388885,369.242188 346.307983,363.538544 335.840698,357.247498   C332.884766,355.844879 329.928833,354.442261 326.914062,352.781921   C326.857117,352.793121 326.800201,352.804321 326.743256,352.815521   C326.839294,352.872253 326.935364,352.929016 327.135925,353.663544   C329.050690,356.163605 330.965454,358.663696 333.127441,361.794128   C340.196472,371.511169 347.265472,381.228241 354.511444,391.574738   C357.946564,396.106079 361.381683,400.637451 364.802338,405.153229   C364.802338,405.153229 364.795532,405.185791 364.953827,405.839172   C366.591248,407.935486 368.228638,410.031799 369.857025,412.060303  M337.286835,336.615173   C337.834961,336.780518 338.383118,336.945831 339.290680,337.680511   C339.821075,338.076080 340.318298,338.528809 340.886719,338.858978   C359.666840,349.767181 378.428589,360.707520 397.250671,371.542969   C406.428772,376.826660 415.721252,381.911621 425.363525,387.625488   C429.484497,390.303864 433.516846,393.139587 437.791260,395.545349   C438.807220,396.117126 440.633423,395.249420 442.846893,395.035095   C443.817078,394.869476 444.925690,394.951782 445.735718,394.499359   C452.803253,390.552032 459.828308,386.528107 466.845306,382.490997   C493.316528,367.261200 519.811707,352.072510 546.208679,336.715057   C549.759216,334.649384 552.799988,331.707672 556.049438,328.426575   C544.966797,310.062683 533.973145,291.644409 522.782532,273.346527   C500.907196,237.577789 478.959320,201.853226 456.952057,166.165512   C452.270752,158.574112 447.207550,151.218231 442.131866,143.166641   C440.513824,144.700806 438.469116,145.972351 437.339813,147.807297   C403.882507,202.170090 370.497070,256.577179 337.162506,311.015320   C333.537567,316.935150 330.289825,323.085907 327.000000,329.810333   C330.314362,331.922699 333.628693,334.035034 337.286835,336.615173  z"/>
<path fill="#BDCCF9" opacity="1.000000" stroke="none" d=" M442.320282,143.753845   C447.207550,151.218231 452.270752,158.574112 456.952057,166.165512   C478.959320,201.853226 500.907196,237.577789 522.782532,273.346527   C533.973145,291.644409 544.966797,310.062683 555.692932,328.701111   C553.327820,328.186340 551.282410,327.479065 549.316162,326.595551   C518.857727,312.909271 488.416962,299.183685 457.951721,285.512512   C452.896362,283.243927 447.744781,281.189789 442.491608,278.975006   C442.188843,280.178619 441.963715,280.655273 441.964081,281.131744   C441.993713,319.102448 442.040985,357.073151 442.086914,395.043854   C440.633423,395.249420 438.807220,396.117126 437.791260,395.545349   C433.516846,393.139587 429.484497,390.303864 425.175507,386.956055   C425.027802,381.585602 422.327179,379.512909 418.086243,378.610535   C423.862701,375.499268 426.298126,376.469391 427.858795,381.861359   C428.282379,383.324890 429.270813,384.624939 430.140930,386.289215   C431.187927,387.052277 432.093964,387.526154 433.348389,388.035187   C435.141266,388.985016 436.585785,389.899689 438.409790,391.054626   C438.660065,389.759247 438.830017,388.879639 439.262665,387.789795   C439.349823,386.053040 439.174286,384.526520 438.999207,382.531342   C438.999786,360.734222 439.050385,339.405518 438.952972,318.077515   C438.935669,314.287842 438.347595,310.495361 437.874023,306.722900   C437.834564,306.408478 436.651672,306.237579 435.629639,306.040710   C433.095062,306.936981 431.162231,307.650635 430.694031,304.094452   C430.603058,303.403595 427.680603,302.294525 427.498932,302.522400   C423.049591,308.102448 417.873505,304.484589 412.961975,303.833191   C411.843628,303.684845 410.577515,303.016449 409.649139,303.346344   C405.081085,304.969757 404.983704,302.108887 405.198914,298.725464   C408.265228,296.967285 411.132599,295.483643 414.354004,293.995056   C415.471588,293.326721 416.235199,292.663361 416.999908,291.750000   C417.001923,291.333344 417.002777,291.166656 417.387085,290.993958   C421.180328,289.658600 424.590179,288.329315 428.006287,287.362946   C428.687897,291.960571 431.557343,290.418427 434.000793,290.403259   C435.192993,295.052429 436.384399,299.298370 437.575806,303.544312   C438.081573,303.459015 438.587341,303.373718 439.093140,303.288422   C438.737396,301.038177 438.214508,298.798340 438.073151,296.534698   C437.932953,294.289917 438.104858,292.015594 438.277252,289.764709   C438.399567,288.167786 438.750092,286.588348 439.129089,284.698547   C439.172943,283.264160 439.086487,282.132355 438.992096,280.721130   C438.971802,280.255859 438.959412,280.069946 439.172668,279.598511   C440.243927,276.796539 441.815552,274.283203 441.826141,271.763336   C441.981903,234.726898 441.913300,197.689575 441.944763,160.652496   C441.949554,155.019516 442.189240,149.386719 442.320282,143.753845  z"/>
<path fill="#FCFEFE" opacity="1.000000" stroke="none" d=" M442.226074,143.460236   C442.189240,149.386719 441.949554,155.019516 441.944763,160.652496   C441.913300,197.689575 441.981903,234.726898 441.826141,271.763336   C441.815552,274.283203 440.243927,276.796539 438.809326,279.662689   C431.142853,283.294647 424.065277,286.576843 416.619171,289.909698   C406.491638,294.289398 396.732605,298.618439 386.678833,302.969208   C385.910767,303.300079 385.437469,303.609253 384.600098,303.976562   C379.788330,306.338837 375.340637,308.642944 370.522491,310.954163   C368.420593,311.621155 366.689148,312.281067 364.594421,312.975891   C356.149933,316.667603 348.068695,320.324371 339.613831,323.985474   C336.140320,325.617157 333.040436,327.244507 329.555969,328.901733   C328.403290,328.997559 327.635223,329.063538 326.867126,329.129547   C330.289825,323.085907 333.537567,316.935150 337.162506,311.015320   C370.497070,256.577179 403.882507,202.170090 437.339813,147.807297   C438.469116,145.972351 440.513824,144.700806 442.226074,143.460236  z"/>
<path fill="#7799F1" opacity="1.000000" stroke="none" d=" M442.466919,395.039490   C442.040985,357.073151 441.993713,319.102448 441.964081,281.131744   C441.963715,280.655273 442.188843,280.178619 442.491608,278.975006   C447.744781,281.189789 452.896362,283.243927 457.951721,285.512512   C488.416962,299.183685 518.857727,312.909271 549.316162,326.595551   C551.282410,327.479065 553.327820,328.186340 555.706665,329.073639   C552.799988,331.707672 549.759216,334.649384 546.208679,336.715057   C519.811707,352.072510 493.316528,367.261200 466.845306,382.490997   C459.828308,386.528107 452.803253,390.552032 445.735718,394.499359   C444.925690,394.951782 443.817078,394.869476 442.466919,395.039490  z"/>
<path fill="#BDCCFA" opacity="1.000000" stroke="none" d=" M441.806396,418.516846   C455.308899,410.633698 468.800842,402.732361 482.316345,394.871552   C504.170197,382.160980 526.036926,369.472626 547.906067,356.788330   C550.185913,355.465942 552.518127,354.233826 555.618347,353.623077   C554.025330,355.951355 552.486084,358.318542 550.831299,360.602051   C525.076050,396.141846 499.312256,431.675415 473.536224,467.200104   C463.293518,481.316620 453.001709,495.397583 442.779022,509.528534   C441.828735,510.842163 441.226349,512.469910 440.193573,509.332123   C440.959412,507.066040 441.884827,505.354645 441.887329,503.641846   C441.928955,475.266937 441.854736,446.891876 441.806396,418.516846  z"/>
<path fill="#FBFDFE" opacity="1.000000" stroke="none" d=" M441.479675,418.362000   C441.854736,446.891876 441.928955,475.266937 441.887329,503.641846   C441.884827,505.354645 440.959412,507.066040 440.135162,509.035522   C422.050781,484.787445 404.293976,460.282410 386.539948,435.775391   C385.370514,434.161102 384.222137,432.531586 383.003632,430.201843   C380.946472,427.006836 378.949615,424.519135 376.952759,422.031464   C376.952759,422.031464 377.000000,422.000000 376.999146,421.629089   C376.491180,416.745941 374.823273,413.143860 369.846252,412.136292   C369.846252,412.136292 369.857025,412.060303 369.901428,411.686707   C368.962738,408.653992 370.194489,404.133179 364.795532,405.185791   C364.795532,405.185791 364.802338,405.153229 364.868347,404.764832   C362.208710,399.973114 359.527832,395.540314 356.686401,391.212921   C356.409271,390.790894 355.142120,391.018951 354.334503,390.945251   C347.265472,381.228241 340.196472,371.511169 333.082092,361.129608   C334.107422,359.575836 335.178101,358.686554 336.248779,357.797302   C346.307983,363.538544 356.388885,369.242188 366.422089,375.028503   C391.343964,389.401306 416.244080,403.811798 441.479675,418.362000  z"/>
<path fill="#BACAFC" opacity="1.000000" stroke="none" d=" M418.000000,379.000000   C422.327179,379.512909 425.027802,381.585602 424.974731,386.686584   C415.721252,381.911621 406.428772,376.826660 397.250671,371.542969   C378.428589,360.707520 359.666840,349.767181 340.886719,338.858978   C340.318298,338.528809 339.821075,338.076080 339.339844,337.106506   C340.605316,336.602966 342.015381,336.298065 343.004608,336.808594   C347.401825,339.078186 351.678497,341.581329 355.999390,344.000000   C356.000000,344.000000 356.000000,344.001221 356.152130,344.310364   C358.879944,347.531128 361.866425,349.533539 366.007935,349.378204   C366.377197,350.443970 366.570190,351.518066 367.124084,351.757629   C371.376160,353.596802 375.698303,355.273834 380.146667,357.303894   C382.529755,359.071045 384.764893,360.535522 387.249725,362.000000   C387.499451,362.000000 387.998871,362.000000 388.165833,362.245575   C388.887970,362.661560 389.443146,362.832001 390.192688,363.273926   C392.257812,365.030975 394.128632,366.516541 396.158813,368.309998   C398.212158,369.411530 400.106079,370.205139 402.370667,371.004028   C405.270447,372.615875 407.775909,374.261353 410.336517,375.815979   C412.186371,376.939087 414.109528,377.941376 416.333313,378.998047   C417.111115,378.999023 417.555542,378.999512 418.000000,379.000000  z"/>
<path fill="#BDCCF9" opacity="1.000000" stroke="none" d=" M355.998779,344.000000   C351.678497,341.581329 347.401825,339.078186 343.004608,336.808594   C342.015381,336.298065 340.605316,336.602966 339.160126,336.821838   C338.383118,336.945831 337.834961,336.780518 337.095154,336.036255   C335.267365,333.639862 333.631226,331.822388 332.191956,329.757385   C337.874939,327.684784 343.444916,328.583649 349.191925,329.270569   C351.271851,331.382019 353.092285,333.299316 355.078461,335.026093   C355.971008,335.802094 357.155579,336.575409 358.275818,336.691315   C361.163605,336.990143 364.089386,336.921692 367.106812,337.259094   C367.475769,338.012085 367.737885,338.506042 367.833099,339.245575   C367.110809,339.660767 366.555389,339.830383 365.635620,339.841248   C358.510712,338.110962 356.569580,339.014771 355.998779,344.000000  z"/>
<path fill="#E2F3FD" opacity="1.000000" stroke="none" d=" M354.422974,391.260010   C355.142120,391.018951 356.409271,390.790894 356.686401,391.212921   C359.527832,395.540314 362.208710,399.973114 364.875610,404.772644   C361.381683,400.637451 357.946564,396.106079 354.422974,391.260010  z"/>
<path fill="#D7ECFD" opacity="1.000000" stroke="none" d=" M336.044739,357.522400   C335.178101,358.686554 334.107422,359.575836 332.958466,360.814453   C330.965454,358.663696 329.050690,356.163605 327.066925,353.335693   C326.997925,353.007843 326.972900,353.039642 326.972900,353.039642   C329.928833,354.442261 332.884766,355.844879 336.044739,357.522400  z"/>
<path fill="#E2F3FD" opacity="1.000000" stroke="none" d=" M369.912354,412.474304   C374.823273,413.143860 376.491180,416.745941 376.981659,421.651489   C374.636200,418.967316 372.307343,415.889832 369.912354,412.474304  z"/>
<path fill="#BACAFC" opacity="1.000000" stroke="none" d=" M331.995087,330.004883   C333.631226,331.822388 335.267365,333.639862 336.923279,335.802368   C333.628693,334.035034 330.314362,331.922699 326.933563,329.469940   C327.635223,329.063538 328.403290,328.997559 329.721558,329.169739   C330.846161,329.606903 331.420624,329.805908 331.995087,330.004883  z"/>
<path fill="#E2F3FD" opacity="1.000000" stroke="none" d=" M364.874695,405.512482   C370.194489,404.133179 368.962738,408.653992 369.905945,411.720642   C368.228638,410.031799 366.591248,407.935486 364.874695,405.512482  z"/>
<path fill="#E2F3FD" opacity="1.000000" stroke="none" d=" M377.008118,422.369446   C378.949615,424.519135 380.946472,427.006836 382.903534,429.882568   C380.930328,427.749512 378.996918,425.228455 377.008118,422.369446  z"/>
<path fill="#D7ECFD" opacity="1.000000" stroke="none" d=" M327.014648,352.996826   C326.935364,352.929016 326.839294,352.872253 326.743256,352.815521   C326.800201,352.804321 326.857117,352.793121 326.943481,352.910767   C326.972900,353.039642 326.997925,353.007843 327.014648,352.996826  z"/>
<path fill="#C0CDF9" opacity="1.000000" stroke="none" d=" M366.000000,340.000000   C366.555389,339.830383 367.110809,339.660767 368.079071,339.061707   C368.498657,337.931702 368.505371,337.231110 368.512085,336.530548   C368.008057,336.687042 367.504028,336.843506 367.000000,337.000000   C364.089386,336.921692 361.163605,336.990143 358.275818,336.691315   C357.155579,336.575409 355.971008,335.802094 355.078461,335.026093   C353.092285,333.299316 351.271851,331.382019 349.191925,329.021179   C349.000000,328.500000 349.000000,328.001221 349.370667,327.995819   C353.719849,327.970642 354.613495,324.727875 356.418243,322.000061   C361.581299,320.981567 361.950256,324.666260 362.874756,328.695496   C364.839569,327.746460 366.373260,327.005646 367.906982,326.264801   C366.973236,324.716949 366.039490,323.169128 364.990723,321.430634   C364.906647,321.466522 365.453339,321.233276 366.382080,320.956299   C368.492798,320.447418 370.209351,319.929565 371.952728,319.528137   C375.442352,318.724762 377.517242,316.877472 377.377319,312.994659   C380.061279,312.792511 382.367889,312.595734 384.843903,312.384521   C384.540100,310.448700 384.269440,308.723938 384.127502,306.698517   C384.492188,305.571350 384.728180,304.744904 384.964142,303.918427   C385.437469,303.609253 385.910767,303.300079 386.882629,303.241638   C388.254120,303.661591 389.127075,303.830811 390.224304,304.267700   C392.632416,304.023560 394.816223,303.511780 397.344513,302.946960   C398.126007,301.929260 398.563019,300.964630 399.350922,299.846985   C401.467896,299.462646 403.233948,299.231323 405.000000,299.000000   C404.983704,302.108887 405.081085,304.969757 409.649139,303.346344   C410.577515,303.016449 411.843628,303.684845 412.961975,303.833191   C417.873505,304.484589 423.049591,308.102448 427.498932,302.522400   C427.680603,302.294525 430.603058,303.403595 430.694031,304.094452   C431.162231,307.650635 433.095062,306.936981 435.629639,306.504822   C435.333313,319.952179 434.666656,332.976074 433.648315,345.943634   C432.164551,344.970215 431.121613,343.430145 429.883606,343.252960   C426.170929,342.721558 424.496765,340.866089 423.603912,337.256622   C423.370300,336.312164 419.847351,335.463318 418.058655,335.791016   C415.419281,336.274567 412.980194,337.851288 410.354553,339.007050   C409.175201,345.431091 408.449768,346.423920 401.502838,345.855438   C396.379242,345.436157 391.293365,343.913971 386.356567,342.357208   C385.273224,342.015625 384.600922,339.502686 384.284851,337.883179   C384.051544,336.687897 385.312683,334.989624 384.830109,334.100586   C383.965729,332.508423 382.490906,330.610474 380.908844,330.183624   C378.012756,329.402283 377.962250,331.891724 377.994446,333.993347   C378.025085,335.991913 378.437439,338.123505 377.883392,339.955048   C377.264313,342.001495 375.746185,343.775909 374.619354,345.668732   C372.074524,343.279968 365.729004,346.670258 366.000000,340.000000  M405.065094,320.980682   C407.550934,320.982941 410.167084,321.461517 412.479309,320.829071   C414.171417,320.366241 415.464142,318.443359 416.934906,317.171265   C415.412567,315.783905 414.098511,313.880737 412.307953,313.157623   C410.597168,312.466797 408.291504,312.623962 406.429535,313.108551   C404.568207,313.593018 402.932678,314.945007 401.198151,315.916687   C402.203308,317.574219 403.208496,319.231750 405.065094,320.980682  M389.469849,319.994263   C390.279663,318.556946 391.089478,317.119629 391.899292,315.682312   C390.700165,315.123230 389.166992,313.793182 388.361359,314.142212   C385.325256,315.457794 382.525818,317.319611 379.637756,318.976898   C379.886963,319.648865 380.136200,320.320831 380.385406,320.992798   C383.128052,320.680908 385.870728,320.369019 389.469849,319.994263  z"/>
<path fill="#C0CDF9" opacity="1.000000" stroke="none" d=" M434.000000,346.000000   C434.666656,332.976074 435.333313,319.952179 436.000000,306.464111   C436.651672,306.237579 437.834564,306.408478 437.874023,306.722900   C438.347595,310.495361 438.935669,314.287842 438.952972,318.077515   C439.050385,339.405518 438.999786,360.734222 438.655457,382.589142   C435.778015,385.133301 437.027802,386.617584 439.000000,388.000000   C438.830017,388.879639 438.660065,389.759247 438.409790,391.054626   C436.585785,389.899689 435.141266,388.985016 433.348389,387.660187   C433.000000,386.500000 433.000000,385.750000 433.385925,384.948425   C437.524139,382.012726 436.273346,378.507751 435.000000,374.600006   C435.000000,373.133331 435.000000,372.066681 435.296631,370.706787   C435.062164,363.942352 434.531097,357.471191 434.000000,350.583344   C434.000000,348.777802 434.000000,347.388885 434.000000,346.000000  z"/>
<path fill="#C0CDF9" opacity="1.000000" stroke="none" d=" M435.000000,375.000000   C436.273346,378.507751 437.524139,382.012726 433.066711,384.972717   C431.574402,385.365753 430.787201,385.682892 430.000000,386.000000   C429.270813,384.624939 428.282379,383.324890 427.858795,381.861359   C426.298126,376.469391 423.862701,375.499268 418.086243,378.610535   C417.555542,378.999512 417.111115,378.999023 416.339050,378.616882   C416.612579,375.191711 417.273773,372.381104 421.565521,373.284119   C423.986725,373.793579 426.518188,373.778717 429.145996,374.301025   C430.114410,376.033661 430.936798,377.465240 432.035736,379.378204   C433.771759,376.814087 434.385864,375.907043 435.000000,375.000000  z"/>
<path fill="#C3CEF6" opacity="1.000000" stroke="none" d=" M390.000000,304.000000   C389.127075,303.830811 388.254120,303.661591 387.177368,303.219971   C396.732605,298.618439 406.491638,294.289398 416.624359,290.195770   C416.999908,290.620758 417.001770,290.810364 417.003662,291.000000   C417.002777,291.166656 417.001923,291.333344 416.678833,291.775909   C415.571106,292.701202 414.785553,293.350616 414.000000,294.000000   C411.132599,295.483643 408.265228,296.967285 405.198914,298.725464   C403.233948,299.231323 401.467896,299.462646 399.017578,299.847107   C397.888885,300.000977 397.444458,300.001709 396.685913,300.139221   C394.247864,301.517334 392.123932,302.758667 390.000000,304.000000  z"/>
<path fill="#C0CDF9" opacity="1.000000" stroke="none" d=" M438.998779,285.001099   C438.750092,286.588348 438.399567,288.167786 438.277252,289.764709   C438.104858,292.015594 437.932953,294.289917 438.073151,296.534698   C438.214508,298.798340 438.737396,301.038177 439.093140,303.288422   C438.587341,303.373718 438.081573,303.459015 437.575806,303.544312   C436.384399,299.298370 435.192993,295.052429 434.000793,289.986572   C434.000000,287.777802 434.000000,286.388885 434.167847,284.746216   C435.223785,283.995361 436.111877,283.498291 437.041443,283.321777   C437.721527,284.095245 438.360168,284.548157 438.998779,285.001099  z"/>
<path fill="#C1CEF7" opacity="1.000000" stroke="none" d=" M437.000000,283.001221   C436.111877,283.498291 435.223785,283.995361 433.803192,284.785339   C431.513824,285.718842 429.756897,286.359436 428.000000,287.000000   C424.590179,288.329315 421.180328,289.658600 417.387085,290.993958   C417.001770,290.810364 416.999908,290.620758 416.992889,290.145111   C424.065277,286.576843 431.142853,283.294647 438.583710,279.948242   C438.959412,280.069946 438.971802,280.255859 438.748047,280.874756   C438.007904,281.872253 437.503937,282.436707 437.000000,283.001221  z"/>
<path fill="#BFCDFB" opacity="1.000000" stroke="none" d=" M428.006287,287.362946   C429.756897,286.359436 431.513824,285.718842 433.635376,285.039124   C434.000000,286.388885 434.000000,287.777802 434.000000,289.583344   C431.557343,290.418427 428.687897,291.960571 428.006287,287.362946  z"/>
<path fill="#C0CDFA" opacity="1.000000" stroke="none" d=" M439.262695,387.789795   C437.027802,386.617584 435.778015,385.133301 438.655029,383.057800   C439.174286,384.526520 439.349823,386.053040 439.262695,387.789795  z"/>
<path fill="#BFCDFB" opacity="1.000000" stroke="none" d=" M437.041443,283.321747   C437.503937,282.436707 438.007904,281.872253 438.755920,281.154144   C439.086487,282.132355 439.172943,283.264160 439.129089,284.698547   C438.360168,284.548157 437.721527,284.095245 437.041443,283.321747  z"/>
<path fill="#C0CDFA" opacity="1.000000" stroke="none" d=" M430.140930,386.289246   C430.787201,385.682892 431.574402,385.365753 432.680786,385.024292   C433.000000,385.750000 433.000000,386.500000 433.000000,387.625000   C432.093964,387.526154 431.187927,387.052277 430.140930,386.289246  z"/>
<path fill="#C1CEF7" opacity="1.000000" stroke="none" d=" M414.354004,293.995056   C414.785553,293.350616 415.571106,292.701202 416.677734,292.025909   C416.235199,292.663361 415.471588,293.326721 414.354004,293.995056  z"/>
<path fill="#BDCCF9" opacity="1.000000" stroke="none" d=" M356.000000,322.000000   C354.613495,324.727875 353.719849,327.970642 349.095581,327.801086   C345.629059,326.401550 342.808228,325.191345 339.987427,323.981140   C348.068695,320.324371 356.149933,316.667603 364.608215,312.995483   C364.985229,312.980133 365.014679,313.015503 364.967621,313.373260   C361.436523,315.886353 357.952515,318.041656 354.431061,320.220123   C354.920502,320.775360 355.460266,321.387695 356.000000,322.000000  z"/>
<path fill="#BDCCF9" opacity="1.000000" stroke="none" d=" M377.000000,313.000000   C377.517242,316.877472 375.442352,318.724762 371.952728,319.528137   C370.209351,319.929565 368.492798,320.447418 366.425476,320.584076   C366.626587,317.709351 371.341400,314.544922 365.014679,313.015503   C365.014679,313.015503 364.985229,312.980133 364.971436,312.960541   C366.689148,312.281067 368.420593,311.621155 370.935364,310.972534   C372.812439,310.989197 373.906219,310.994598 375.041382,311.320770   C375.721832,312.094360 376.360931,312.547180 377.000000,313.000000  z"/>
<path fill="#C3CEFA" opacity="1.000000" stroke="none" d=" M339.613831,323.985474   C342.808228,325.191345 345.629059,326.401550 348.724915,327.806488   C349.000000,328.001221 349.000000,328.500000 349.000000,328.749390   C343.444916,328.583649 337.874939,327.684784 332.191956,329.757385   C331.420624,329.805908 330.846161,329.606903 330.106140,329.139893   C333.040436,327.244507 336.140320,325.617157 339.613831,323.985474  z"/>
<path fill="#C3CEF6" opacity="1.000000" stroke="none" d=" M375.000000,311.000000   C373.906219,310.994598 372.812439,310.989197 371.305786,310.965424   C375.340637,308.642944 379.788330,306.338837 384.600098,303.976562   C384.728180,304.744904 384.492188,305.571350 383.799194,306.841583   C380.561462,308.523560 377.780731,309.761780 375.000000,311.000000  z"/>
<path fill="#C0CDFA" opacity="1.000000" stroke="none" d=" M429.000000,374.000000   C426.518188,373.778717 423.986725,373.793579 421.565521,373.284119   C417.273773,372.381104 416.612579,375.191711 416.005707,378.616394   C414.109528,377.941376 412.186371,376.939087 410.336517,375.815979   C407.775909,374.261353 405.270447,372.615875 402.334595,370.646393   C400.663086,367.674438 399.967957,363.585175 395.999420,368.002106   C394.128632,366.516541 392.257812,365.030975 390.162842,362.980652   C389.292053,362.277252 388.645477,362.138641 387.998871,362.000000   C387.998871,362.000000 387.499451,362.000000 387.210144,361.640198   C386.036133,359.605865 385.151428,357.931396 384.173798,356.081116   C382.750641,356.394745 381.374664,356.697968 379.998718,357.001221   C375.698303,355.273834 371.376160,353.596802 367.124084,351.757629   C366.570190,351.518066 366.377197,350.443970 365.966797,349.008881   C364.327515,342.845734 359.890320,344.059998 356.000000,344.001221   C356.000000,344.001221 356.000000,344.000000 355.999390,344.000000   C356.569580,339.014771 358.510712,338.110962 365.635620,339.841248   C365.729004,346.670258 372.074524,343.279968 374.619354,345.668732   C375.746185,343.775909 377.264313,342.001495 377.883392,339.955048   C378.437439,338.123505 378.025085,335.991913 377.994446,333.993347   C377.962250,331.891724 378.012756,329.402283 380.908844,330.183624   C382.490906,330.610474 383.965729,332.508423 384.830109,334.100586   C385.312683,334.989624 384.051544,336.687897 384.284851,337.883179   C384.600922,339.502686 385.273224,342.015625 386.356567,342.357208   C391.293365,343.913971 396.379242,345.436157 401.502838,345.855438   C408.449768,346.423920 409.175201,345.431091 410.354553,339.007050   C412.980194,337.851288 415.419281,336.274567 418.058655,335.791016   C419.847351,335.463318 423.370300,336.312164 423.603912,337.256622   C424.496765,340.866089 426.170929,342.721558 429.883606,343.252960   C431.121613,343.430145 432.164551,344.970215 433.648315,345.943634   C434.000000,347.388885 434.000000,348.777802 433.611755,350.628906   C432.286560,351.375671 431.355774,351.878235 430.411407,351.905212   C427.109253,351.999451 424.381622,353.023224 424.132935,356.695404   C423.906158,360.044495 426.103821,361.523865 429.286865,362.082153   C432.214447,362.595642 432.623840,364.291687 430.844269,366.668457   C430.090637,367.675018 429.606567,368.883362 429.000000,370.399963   C429.000000,371.866669 429.000000,372.933319 429.000000,374.000000  z"/>
<path fill="#BDCCF9" opacity="1.000000" stroke="none" d=" M356.152130,344.310364   C359.890320,344.059998 364.327515,342.845734 365.957642,348.630676   C361.866425,349.533539 358.879944,347.531128 356.152130,344.310364  z"/>
<path fill="#BDCCF9" opacity="1.000000" stroke="none" d=" M380.146667,357.303894   C381.374664,356.697968 382.750641,356.394745 384.173798,356.081116   C385.151428,357.931396 386.036133,359.605865 386.960449,361.640198   C384.764893,360.535522 382.529755,359.071045 380.146667,357.303894  z"/>
<path fill="#BDCCF9" opacity="1.000000" stroke="none" d=" M396.158813,368.309998   C399.967957,363.585175 400.663086,367.674438 401.963928,370.641144   C400.106079,370.205139 398.212158,369.411530 396.158813,368.309998  z"/>
<path fill="#BDCCF9" opacity="1.000000" stroke="none" d=" M388.165833,362.245575   C388.645477,362.138641 389.292053,362.277252 389.968506,362.709167   C389.443146,362.832001 388.887970,362.661560 388.165833,362.245575  z"/>
<path fill="#C0CDFA" opacity="1.000000" stroke="none" d=" M367.106812,337.259094   C367.504028,336.843506 368.008057,336.687042 368.512085,336.530548   C368.505371,337.231110 368.498657,337.931702 368.245972,338.816132   C367.737885,338.506042 367.475769,338.012085 367.106812,337.259094  z"/>
<path fill="#C0CDFA" opacity="1.000000" stroke="none" d=" M404.639374,320.934998   C403.208496,319.231750 402.203308,317.574219 401.198151,315.916687   C402.932678,314.945007 404.568207,313.593018 406.429535,313.108551   C408.291504,312.623962 410.597168,312.466797 412.307953,313.157623   C414.098511,313.880737 415.412567,315.783905 416.934906,317.171265   C415.464142,318.443359 414.171417,320.366241 412.479309,320.829071   C410.167084,321.461517 407.550934,320.982941 404.639374,320.934998  z"/>
<path fill="#C0CDFA" opacity="1.000000" stroke="none" d=" M364.967621,313.373260   C371.341400,314.544922 366.626587,317.709351 366.043396,320.627808   C365.453339,321.233276 364.906647,321.466522 364.990723,321.430634   C366.039490,323.169128 366.973236,324.716949 367.906982,326.264801   C366.373260,327.005646 364.839569,327.746460 362.874756,328.695496   C361.950256,324.666260 361.581299,320.981567 356.418243,322.000061   C355.460266,321.387695 354.920502,320.775360 354.431061,320.220123   C357.952515,318.041656 361.436523,315.886353 364.967621,313.373260  z"/>
<path fill="#C0CDFA" opacity="1.000000" stroke="none" d=" M389.041626,320.025696   C385.870728,320.369019 383.128052,320.680908 380.385406,320.992798   C380.136200,320.320831 379.886963,319.648865 379.637756,318.976898   C382.525818,317.319611 385.325256,315.457794 388.361359,314.142212   C389.166992,313.793182 390.700165,315.123230 391.899292,315.682312   C391.089478,317.119629 390.279663,318.556946 389.041626,320.025696  z"/>
<path fill="#C0CDFA" opacity="1.000000" stroke="none" d=" M375.041382,311.320770   C377.780731,309.761780 380.561462,308.523560 383.670471,307.142273   C384.269440,308.723938 384.540100,310.448700 384.843903,312.384521   C382.367889,312.595734 380.061279,312.792511 377.377319,312.994659   C376.360931,312.547180 375.721832,312.094360 375.041382,311.320770  z"/>
<path fill="#C0CDFA" opacity="1.000000" stroke="none" d=" M390.224304,304.267670   C392.123932,302.758667 394.247864,301.517334 396.685913,300.513855   C397.000000,301.501160 397.000000,302.250580 397.000000,303.000000   C394.816223,303.511780 392.632416,304.023560 390.224304,304.267670  z"/>
<path fill="#BDCCF9" opacity="1.000000" stroke="none" d=" M397.344513,302.946960   C397.000000,302.250580 397.000000,301.501160 397.000000,300.377106   C397.444458,300.001709 397.888885,300.000977 398.666687,300.000122   C398.563019,300.964630 398.126007,301.929260 397.344513,302.946960  z"/>
<path fill="#C0CDF9" opacity="1.000000" stroke="none" d=" M429.000000,370.000000   C429.606567,368.883362 430.090637,367.675018 430.844269,366.668457   C432.623840,364.291687 432.214447,362.595642 429.286865,362.082153   C426.103821,361.523865 423.906158,360.044495 424.132935,356.695404   C424.381622,353.023224 427.109253,351.999451 430.411407,351.905212   C431.355774,351.878235 432.286560,351.375671 433.611786,351.045593   C434.531097,357.471191 435.062164,363.942352 435.020447,370.512054   C432.631805,370.407043 430.815887,370.203522 429.000000,370.000000  z"/>
<path fill="#BDCCF9" opacity="1.000000" stroke="none" d=" M429.000000,370.399994   C430.815887,370.203522 432.631805,370.407043 434.723846,370.805298   C435.000000,372.066681 435.000000,373.133331 435.000000,374.599976   C434.385864,375.907043 433.771759,376.814087 432.035736,379.378204   C430.936798,377.465240 430.114410,376.033661 429.145996,374.301025   C429.000000,372.933319 429.000000,371.866669 429.000000,370.399994  z"/>
</svg>