<svg version="1.1" id="Layer_1" xmlns="http://www.w3.org/2000/svg" xmlns:xlink="http://www.w3.org/1999/xlink" x="0px" y="0px"
	 width="100%" viewBox="0 0 1024 1024" enable-background="new 0 0 1024 1024" xml:space="preserve">
<path fill="#8247E5" opacity="1.000000" stroke="none" 
	d="
M1.000008,558.000000 
	C1.000000,528.312439 1.000000,498.624878 1.388316,468.708527 
	C2.183928,467.298981 2.836229,466.142975 2.958534,464.933380 
	C3.718774,457.414764 3.833920,449.790863 5.147629,442.376312 
	C8.128109,425.554657 11.349226,408.760559 15.067534,392.087952 
	C22.595850,358.331512 34.516815,326.028961 49.135029,294.765747 
	C62.002438,267.246918 77.390038,241.139893 95.054489,216.371826 
	C109.189957,196.551895 124.407974,177.639114 141.393997,160.216095 
	C151.592102,149.755615 162.130127,139.602341 172.902649,129.733734 
	C181.498856,121.858826 190.260635,114.041023 199.696152,107.233566 
	C215.672287,95.707207 231.644821,83.960823 248.703888,74.203995 
	C270.883331,61.518593 293.695099,49.727718 317.023651,39.320210 
	C341.786957,28.272642 367.803406,20.284740 394.337311,14.375727 
	C406.884552,11.581494 419.524780,9.116726 432.215973,7.083832 
	C443.361694,5.298508 454.641693,4.358403 465.846039,2.917836 
	C466.633179,2.816629 467.285156,1.663802 468.000000,0.999992 
	C497.687561,1.000000 527.375122,1.000000 557.290771,1.388106 
	C558.699829,2.183675 559.856018,2.836261 561.065735,2.958575 
	C568.584778,3.718783 576.209045,3.833759 583.623901,5.147496 
	C600.446289,8.128002 617.248779,11.318789 633.913025,15.073523 
	C668.291382,22.819546 701.175354,34.980633 732.990662,50.030285 
	C759.279724,62.465851 784.244019,77.177269 808.026978,93.952286 
	C828.458008,108.363037 847.884460,123.973068 865.788757,141.401031 
	C876.257446,151.591156 886.404114,162.137329 896.273010,172.910461 
	C904.146729,181.505707 911.963074,190.266830 918.769531,199.701263 
	C930.294556,215.676086 942.039551,231.647171 951.795715,248.704483 
	C964.480774,270.882568 976.274536,293.691559 986.678894,317.019806 
	C997.723206,341.783051 1005.719666,367.795929 1011.621155,394.331421 
	C1014.411804,406.879181 1016.882080,419.517761 1018.915588,432.208435 
	C1020.701538,443.354126 1021.641113,454.634399 1023.081787,465.838898 
	C1023.183289,466.628448 1024.336060,467.282806 1025.000000,468.000000 
	C1025.000000,497.687561 1025.000000,527.375122 1024.611572,557.291565 
	C1023.815857,558.701477 1023.163330,559.857727 1023.041016,561.067566 
	C1022.281006,568.586365 1022.166504,576.210388 1020.852783,583.624939 
	C1017.872314,600.446899 1014.680847,617.248718 1010.926453,633.912537 
	C1003.180786,668.291016 991.019775,701.174988 975.969788,732.990173 
	C963.534180,759.278625 948.823059,784.242249 932.048279,808.024902 
	C917.637268,828.456238 902.027588,847.883240 884.599670,865.788086 
	C874.409790,876.256897 863.863831,886.403687 853.090820,896.272705 
	C844.495789,904.146423 835.735107,911.962952 826.300781,918.769287 
	C810.325378,930.294556 794.353333,942.039490 777.295349,951.795837 
	C755.117188,964.480774 732.308289,976.275024 708.979797,986.678650 
	C684.215881,997.722229 658.202515,1005.719055 631.667114,1011.622437 
	C619.119507,1014.413879 606.480469,1016.882751 593.789673,1018.916016 
	C582.644287,1020.701660 571.364319,1021.641113 560.160217,1023.081604 
	C559.370972,1023.183105 558.716919,1024.336060 558.000000,1025.000000 
	C528.312439,1025.000000 498.624878,1025.000000 468.708679,1024.611694 
	C467.299286,1023.815857 466.143341,1023.163208 464.933746,1023.040955 
	C457.415192,1022.280945 449.791260,1022.166565 442.376862,1020.852783 
	C425.555389,1017.872375 408.761566,1014.650391 392.089050,1010.932373 
	C358.333038,1003.404724 326.031281,991.483643 294.768463,976.865723 
	C267.249207,963.998291 241.141785,948.610962 216.373169,930.946716 
	C196.554016,916.812256 177.643982,901.593201 160.219910,884.609985 
	C149.877441,874.529236 139.842773,864.107727 130.090408,853.454224 
	C122.106941,844.733093 114.153648,835.870300 107.241852,826.307861 
	C95.702087,810.342590 83.967896,794.361572 74.210670,777.303162 
	C61.524292,755.123657 49.728142,732.313782 39.322769,708.984009 
	C28.277418,684.219482 20.280638,658.204956 14.378347,631.668030 
	C11.587424,619.119934 9.117297,606.480896 7.083755,593.789795 
	C5.297841,582.644226 4.358312,571.364075 2.917772,560.159668 
	C2.816327,559.370605 1.663795,558.716736 1.000008,558.000000 
M542.114258,586.077637 
	C522.555115,597.142090 503.022614,608.254150 483.405884,619.215454 
	C480.713257,620.720032 479.828979,622.481689 479.856171,625.521790 
	C480.005219,642.185547 480.087158,658.853210 479.881287,675.515747 
	C479.681793,691.659424 487.235901,703.118713 500.881561,710.745850 
	C547.802612,736.971985 594.844910,762.981262 641.776123,789.189331 
	C654.443481,796.263184 667.441895,796.989685 680.233093,790.686584 
	C693.950806,783.926819 707.173218,776.154785 720.557495,768.726746 
	C754.906067,749.663879 789.260620,730.611389 823.537415,711.420288 
	C837.682251,703.500732 845.731140,691.447449 845.778198,675.002441 
	C845.927368,622.841248 845.929749,570.679138 845.774170,518.518005 
	C845.727966,503.026184 838.962341,491.081726 825.216675,483.388458 
	C777.872864,456.890778 730.610046,430.247253 683.159485,403.942291 
	C668.763428,395.961609 653.668701,396.323181 639.407837,404.281891 
	C589.269836,432.262878 539.288330,460.524872 489.309631,488.790344 
	C454.830750,508.289917 420.426605,527.922180 386.045410,547.593689 
	C370.778046,556.328979 355.700928,556.311951 340.415985,547.644592 
	C316.240387,533.935730 291.923248,520.476196 267.765167,506.736786 
	C253.045746,498.365387 245.013046,485.942291 245.122482,468.548828 
	C245.296539,440.885986 245.182251,413.221344 245.191269,385.557465 
	C245.191803,383.902435 244.878174,382.167084 245.262939,380.605133 
	C248.339935,368.113556 254.941299,358.304474 266.516693,351.962708 
	C290.895325,338.606384 315.201721,325.115509 339.428192,311.485138 
	C354.516449,302.996155 369.671722,303.736328 384.357330,311.572998 
	C407.404388,323.871460 429.873688,337.255371 452.958191,349.479950 
	C470.701385,358.876007 479.259644,372.886841 478.771149,392.903564 
	C478.425690,407.060425 478.695709,421.232513 478.715729,435.397766 
	C478.718170,437.124054 478.874908,438.850128 478.962524,440.624390 
	C479.818420,440.509735 480.183258,440.557434 480.439514,440.412750 
	C500.733765,428.958466 521.047485,417.537689 541.242249,405.910370 
	C542.572693,405.144318 543.704895,402.799530 543.721619,401.176666 
	C543.896545,384.180176 544.144836,367.173248 543.725830,350.185181 
	C543.351868,335.022461 536.753967,323.127533 523.222412,315.480713 
	C476.712769,289.197662 430.314514,262.715576 383.667816,236.678421 
	C371.640564,229.965103 358.257751,229.273712 345.894806,235.329544 
	C329.177795,243.518158 313.109680,253.038712 296.816254,262.083435 
	C264.507294,280.018555 232.185059,297.930969 199.973343,316.039612 
	C188.416687,322.536469 180.625229,332.610840 180.493484,345.904968 
	C179.956833,400.060242 180.173950,454.223297 180.184921,508.383484 
	C180.187988,523.462402 187.129807,534.839722 200.075897,542.104553 
	C247.532410,568.735168 295.118256,595.135437 342.691986,621.556641 
	C350.098083,625.669800 358.274658,628.408325 366.591766,626.716003 
	C374.075287,625.193359 381.649323,622.527527 388.313477,618.807495 
	C471.302460,572.481689 554.199280,525.989380 636.944458,479.229492 
	C652.635681,470.362305 667.964417,469.472717 683.618835,478.018433 
	C708.303711,491.493896 732.904846,505.129913 757.348022,519.038025 
	C770.584351,526.569458 777.930054,538.309082 778.081238,553.665955 
	C778.360046,581.993774 778.322693,610.327637 778.090271,638.656311 
	C777.972229,653.050171 771.510315,664.352295 759.029785,671.605469 
	C733.408081,686.495911 707.725098,701.290344 681.825500,715.689392 
	C670.158752,722.175598 657.416199,723.868408 645.250183,717.362366 
	C617.961060,702.769043 590.722046,688.037292 564.024353,672.402649 
	C551.527832,665.084473 544.693848,653.274414 544.873108,638.022644 
	C545.076782,620.696228 544.835144,603.364624 544.754639,585.447021 
	C544.095398,585.593201 543.436157,585.739319 542.114258,586.077637 
z"/>
<path fill="#FFFEFF" opacity="1.000000" stroke="none" 
	d="
M544.787109,586.035278 
	C544.835144,603.364624 545.076782,620.696228 544.873108,638.022644 
	C544.693848,653.274414 551.527832,665.084473 564.024353,672.402649 
	C590.722046,688.037292 617.961060,702.769043 645.250183,717.362366 
	C657.416199,723.868408 670.158752,722.175598 681.825500,715.689392 
	C707.725098,701.290344 733.408081,686.495911 759.029785,671.605469 
	C771.510315,664.352295 777.972229,653.050171 778.090271,638.656311 
	C778.322693,610.327637 778.360046,581.993774 778.081238,553.665955 
	C777.930054,538.309082 770.584351,526.569458 757.348022,519.038025 
	C732.904846,505.129913 708.303711,491.493896 683.618835,478.018433 
	C667.964417,469.472717 652.635681,470.362305 636.944458,479.229492 
	C554.199280,525.989380 471.302460,572.481689 388.313477,618.807495 
	C381.649323,622.527527 374.075287,625.193359 366.591766,626.716003 
	C358.274658,628.408325 350.098083,625.669800 342.691986,621.556641 
	C295.118256,595.135437 247.532410,568.735168 200.075897,542.104553 
	C187.129807,534.839722 180.187988,523.462402 180.184921,508.383484 
	C180.173950,454.223297 179.956833,400.060242 180.493484,345.904968 
	C180.625229,332.610840 188.416687,322.536469 199.973343,316.039612 
	C232.185059,297.930969 264.507294,280.018555 296.816254,262.083435 
	C313.109680,253.038712 329.177795,243.518158 345.894806,235.329544 
	C358.257751,229.273712 371.640564,229.965103 383.667816,236.678421 
	C430.314514,262.715576 476.712769,289.197662 523.222412,315.480713 
	C536.753967,323.127533 543.351868,335.022461 543.725830,350.185181 
	C544.144836,367.173248 543.896545,384.180176 543.721619,401.176666 
	C543.704895,402.799530 542.572693,405.144318 541.242249,405.910370 
	C521.047485,417.537689 500.733765,428.958466 480.439514,440.412750 
	C480.183258,440.557434 479.818420,440.509735 478.962524,440.624390 
	C478.874908,438.850128 478.718170,437.124054 478.715729,435.397766 
	C478.695709,421.232513 478.425690,407.060425 478.771149,392.903564 
	C479.259644,372.886841 470.701385,358.876007 452.958191,349.479950 
	C429.873688,337.255371 407.404388,323.871460 384.357330,311.572998 
	C369.671722,303.736328 354.516449,302.996155 339.428192,311.485138 
	C315.201721,325.115509 290.895325,338.606384 266.516693,351.962708 
	C254.941299,358.304474 248.339935,368.113556 245.262939,380.605133 
	C244.878174,382.167084 245.191803,383.902435 245.191269,385.557465 
	C245.182251,413.221344 245.296539,440.885986 245.122482,468.548828 
	C245.013046,485.942291 253.045746,498.365387 267.765167,506.736786 
	C291.923248,520.476196 316.240387,533.935730 340.415985,547.644592 
	C355.700928,556.311951 370.778046,556.328979 386.045410,547.593689 
	C420.426605,527.922180 454.830750,508.289917 489.309631,488.790344 
	C539.288330,460.524872 589.269836,432.262878 639.407837,404.281891 
	C653.668701,396.323181 668.763428,395.961609 683.159485,403.942291 
	C730.610046,430.247253 777.872864,456.890778 825.216675,483.388458 
	C838.962341,491.081726 845.727966,503.026184 845.774170,518.518005 
	C845.929749,570.679138 845.927368,622.841248 845.778198,675.002441 
	C845.731140,691.447449 837.682251,703.500732 823.537415,711.420288 
	C789.260620,730.611389 754.906067,749.663879 720.557495,768.726746 
	C707.173218,776.154785 693.950806,783.926819 680.233093,790.686584 
	C667.441895,796.989685 654.443481,796.263184 641.776123,789.189331 
	C594.844910,762.981262 547.802612,736.971985 500.881561,710.745850 
	C487.235901,703.118713 479.681793,691.659424 479.881287,675.515747 
	C480.087158,658.853210 480.005219,642.185547 479.856171,625.521790 
	C479.828979,622.481689 480.713257,620.720032 483.405884,619.215454 
	C503.022614,608.254150 522.555115,597.142090 542.779541,586.022705 
	C543.892273,585.990234 544.339661,586.012756 544.787109,586.035278 
z"/>
<path fill="#EFE8FC" opacity="1.000000" stroke="none" 
	d="
M544.770874,585.741150 
	C544.339661,586.012756 543.892273,585.990234 543.110840,585.926636 
	C543.436157,585.739319 544.095398,585.593201 544.770874,585.741150 
z"/>
</svg>