<svg version="1.1" id="Layer_1" xmlns="http://www.w3.org/2000/svg" xmlns:xlink="http://www.w3.org/1999/xlink" x="0px" y="0px"
	 width="100%" viewBox="0 0 512 512" enable-background="new 0 0 512 512" xml:space="preserve">

<path fill="#FF0013" opacity="1.000000" stroke="none" 
	d="
M135.985214,54.999756 
	C147.730133,49.284794 158.911743,43.189053 170.537750,38.110668 
	C187.034760,30.904566 204.544418,26.471605 222.296082,24.327299 
	C238.669144,22.349518 255.371887,21.560968 271.840057,22.283997 
	C294.554657,23.281271 316.794800,28.077801 338.229492,35.984890 
	C361.517517,44.575653 383.146942,56.190914 402.400574,71.954559 
	C410.038239,78.207787 417.886566,84.340622 424.711121,91.422409 
	C440.217316,107.513023 453.380371,125.353783 464.165100,145.079971 
	C476.350220,167.367523 484.102509,191.083572 488.761414,215.816711 
	C492.226776,234.213547 493.154083,252.999817 491.844299,271.653900 
	C489.749146,301.493164 483.020233,330.302826 469.942261,357.440857 
	C461.326324,375.319702 450.986511,392.033844 438.256989,407.314362 
	C418.363037,431.195160 394.815613,450.436401 367.327118,464.991272 
	C346.275177,476.138092 324.055695,483.568512 300.704102,488.094696 
	C281.762207,491.766113 262.646912,492.942719 243.530014,491.831268 
	C217.671295,490.327881 192.482071,485.048676 168.387711,475.110748 
	C149.136246,467.170319 130.957962,457.256958 114.450310,444.635437 
	C98.729813,432.615753 84.686134,418.818329 72.358528,403.144989 
	C61.979630,389.949280 53.128872,375.897034 45.653778,361.014709 
	C36.183853,342.160767 29.946857,322.128998 25.957136,301.378052 
	C22.319721,282.459442 21.183475,263.353180 22.135145,244.208099 
	C23.003775,226.733551 25.257690,209.298981 30.855431,192.626190 
	C35.561127,178.610306 40.230759,164.434509 46.674648,151.184616 
	C56.362217,131.265106 69.142624,113.297523 84.326683,96.913765 
	C99.539307,80.499207 116.806938,66.915573 135.985214,54.999756 
M225.238510,149.014801 
	C219.640091,148.663376 214.021164,148.507401 208.447235,147.922577 
	C193.770493,146.382660 179.119156,144.601898 164.446548,143.020523 
	C151.390244,141.613358 138.322510,140.308746 125.252243,139.036835 
	C121.254364,138.647781 117.231392,138.516479 112.838104,138.243423 
	C152.494583,241.614670 191.986771,344.557678 231.556259,447.702179 
	C235.143723,443.855103 238.810059,440.085754 242.295715,436.156128 
	C254.762375,422.101593 267.143677,407.971313 279.606628,393.913452 
	C285.739563,386.995667 292.036957,380.223572 298.160980,373.298035 
	C310.275574,359.597961 322.263947,345.786011 334.414185,332.117798 
	C343.848389,321.504944 353.496307,311.082336 362.964478,300.499359 
	C376.378021,285.506470 389.731323,270.459534 403.074249,255.403687 
	C408.745422,249.004425 414.325043,242.524048 419.933685,236.094986 
	C419.797943,235.733414 419.767303,235.351929 419.561279,235.145569 
	C395.428436,210.972794 371.291382,186.804199 347.100739,162.689331 
	C346.258820,161.850052 344.918518,161.208344 343.737640,161.061874 
	C337.388153,160.274292 331.017212,159.656677 324.650665,159.010376 
	C311.420380,157.667313 298.194580,156.274490 284.955017,155.029205 
	C269.898041,153.612961 254.822998,152.388290 239.766632,150.965591 
	C235.213333,150.535339 230.696091,149.723541 225.238510,149.014801 
z"/>
<path fill="#fff" opacity="1.000000" stroke="none" 
	d="
M225.700409,149.050659 
	C230.696091,149.723541 235.213333,150.535339 239.766632,150.965591 
	C254.822998,152.388290 269.898041,153.612961 284.955017,155.029205 
	C298.194580,156.274490 311.420380,157.667313 324.650665,159.010376 
	C331.017212,159.656677 337.388153,160.274292 343.737640,161.061874 
	C344.918518,161.208344 346.258820,161.850052 347.100739,162.689331 
	C371.291382,186.804199 395.428436,210.972794 419.561279,235.145569 
	C419.767303,235.351929 419.797943,235.733414 419.933685,236.094986 
	C414.325043,242.524048 408.745422,249.004425 403.074249,255.403687 
	C389.731323,270.459534 376.378021,285.506470 362.964478,300.499359 
	C353.496307,311.082336 343.848389,321.504944 334.414185,332.117798 
	C322.263947,345.786011 310.275574,359.597961 298.160980,373.298035 
	C292.036957,380.223572 285.739563,386.995667 279.606628,393.913452 
	C267.143677,407.971313 254.762375,422.101593 242.295715,436.156128 
	C238.810059,440.085754 235.143723,443.855103 231.556259,447.702179 
	C191.986771,344.557678 152.494583,241.614670 112.838104,138.243423 
	C117.231392,138.516479 121.254364,138.647781 125.252243,139.036835 
	C138.322510,140.308746 151.390244,141.613358 164.446548,143.020523 
	C179.119156,144.601898 193.770493,146.382660 208.447235,147.922577 
	C214.021164,148.507401 219.640091,148.663376 225.700409,149.050659 
M289.335358,263.984650 
	C281.940491,265.063568 274.545593,266.142517 267.170868,267.218536 
	C261.422913,310.355927 255.734802,353.044281 250.046677,395.732635 
	C250.434097,395.819580 250.821518,395.906555 251.208939,395.993500 
	C293.891693,347.617493 336.574463,299.241486 379.971252,250.056213 
	C371.377594,251.181915 364.106750,252.004257 356.878967,253.108459 
	C342.364655,255.325851 327.869995,257.673370 313.374878,260.014465 
	C305.650360,261.262054 297.941772,262.608307 289.335358,263.984650 
M156.972107,185.464340 
	C156.143402,185.004349 155.314713,184.544373 153.628662,183.608505 
	C179.595062,251.383759 205.146194,318.075134 230.697327,384.766541 
	C231.144974,384.668610 231.592606,384.570679 232.040253,384.472748 
	C233.029251,375.416321 233.962570,366.353363 235.023300,357.305359 
	C236.034058,348.683563 237.178818,340.077484 238.262680,331.464294 
	C239.509567,321.555389 240.745193,311.645020 242.002487,301.737457 
	C243.238861,291.994873 244.753326,282.278381 245.645676,272.504822 
	C246.160583,266.865051 248.478271,260.919647 241.913101,256.239899 
	C233.782639,250.444382 226.373154,243.631027 218.707077,237.192062 
	C209.643005,229.578903 200.678650,221.846802 191.596191,214.255829 
	C180.264084,204.784653 168.855621,195.404861 156.972107,185.464340 
M309.498413,190.998062 
	C312.955139,187.951874 316.411865,184.905670 319.868622,181.859482 
	C319.557465,181.132812 319.246338,180.406143 318.935211,179.679459 
	C267.212250,174.711075 215.489288,169.742676 163.766327,164.774277 
	C163.582733,165.210770 163.399155,165.647263 163.215561,166.083755 
	C194.366608,191.602127 225.517654,217.120483 257.320129,243.172470 
	C274.444153,226.049698 291.721191,208.773926 309.498413,190.998062 
M318.501709,209.001755 
	C307.526123,219.978241 296.550568,230.954712 284.572540,242.933731 
	C318.526489,238.391663 350.760895,234.079636 384.058319,229.625397 
	C369.543091,214.322174 355.918976,199.958466 342.067078,185.354584 
	C334.028168,193.422012 326.514954,200.961899 318.501709,209.001755 
z"/>
<path fill="#FF0013" opacity="1.000000" stroke="none" 
	d="
M289.780701,263.947327 
	C297.941772,262.608307 305.650360,261.262054 313.374878,260.014465 
	C327.869995,257.673370 342.364655,255.325851 356.878967,253.108459 
	C364.106750,252.004257 371.377594,251.181915 379.971252,250.056213 
	C336.574463,299.241486 293.891693,347.617493 251.208939,395.993500 
	C250.821518,395.906555 250.434097,395.819580 250.046677,395.732635 
	C255.734802,353.044281 261.422913,310.355927 267.170868,267.218536 
	C274.545593,266.142517 281.940491,265.063568 289.780701,263.947327 
z"/>
<path fill="#FF0013" opacity="1.000000" stroke="none" 
	d="
M157.226120,185.724976 
	C168.855621,195.404861 180.264084,204.784653 191.596191,214.255829 
	C200.678650,221.846802 209.643005,229.578903 218.707077,237.192062 
	C226.373154,243.631027 233.782639,250.444382 241.913101,256.239899 
	C248.478271,260.919647 246.160583,266.865051 245.645676,272.504822 
	C244.753326,282.278381 243.238861,291.994873 242.002487,301.737457 
	C240.745193,311.645020 239.509567,321.555389 238.262680,331.464294 
	C237.178818,340.077484 236.034058,348.683563 235.023300,357.305359 
	C233.962570,366.353363 233.029251,375.416321 232.040253,384.472748 
	C231.592606,384.570679 231.144974,384.668610 230.697327,384.766541 
	C205.146194,318.075134 179.595062,251.383759 153.628662,183.608505 
	C155.314713,184.544373 156.143402,185.004349 157.226120,185.724976 
z"/>
<path fill="#FF0013" opacity="1.000000" stroke="none" 
	d="
M309.248322,191.248108 
	C291.721191,208.773926 274.444153,226.049698 257.320129,243.172470 
	C225.517654,217.120483 194.366608,191.602127 163.215561,166.083755 
	C163.399155,165.647263 163.582733,165.210770 163.766327,164.774277 
	C215.489288,169.742676 267.212250,174.711075 318.935211,179.679459 
	C319.246338,180.406143 319.557465,181.132812 319.868622,181.859482 
	C316.411865,184.905670 312.955139,187.951874 309.248322,191.248108 
z"/>
<path fill="#FF0012" opacity="1.000000" stroke="none" 
	d="
M318.751709,208.751770 
	C326.514954,200.961899 334.028168,193.422012 342.067078,185.354584 
	C355.918976,199.958466 369.543091,214.322174 384.058319,229.625397 
	C350.760895,234.079636 318.526489,238.391663 284.572540,242.933731 
	C296.550568,230.954712 307.526123,219.978241 318.751709,208.751770 
z"/>
</svg>