<svg xmlns="http://www.w3.org/2000/svg" xmlns:xlink="http://www.w3.org/1999/xlink" version="1.1" id="Layer_1" x="0px" y="0px" enable-background="new 0 0 200 200" xml:space="preserve" viewBox="1 18.94 200 164.19">
<path fill="#D3B25B" opacity="1.000000" stroke="none" d=" M1.000000,90.000000   C1.000000,86.637901 1.000000,83.275795 1.239779,79.796829   C2.225076,79.025887 3.187077,78.505173 3.684265,77.698120   C14.487028,60.162636 25.205109,42.574944 36.026073,25.050764   C38.254509,21.441883 41.122982,18.924265 45.943310,18.938587   C83.707146,19.050795 121.471474,19.020411 159.235565,18.971237   C163.091766,18.966217 165.559845,20.475544 167.502884,23.890087   C176.970383,40.527424 186.599960,57.073292 196.295013,73.579384   C197.486359,75.607674 199.413712,77.203674 201.000000,79.000000   C201.000000,82.362099 201.000000,85.724205 200.777115,89.205414   C199.915405,89.848572 199.230682,90.326019 198.644363,90.903381   C174.937576,114.248306 151.264130,137.627136 127.525093,160.939209   C120.786041,167.557053 113.890671,174.017151 107.005981,180.484650   C103.309731,183.956924 98.795128,184.006866 95.120682,180.625732   C89.763283,175.696060 84.394936,170.771362 79.204582,165.668259   C54.646427,141.522949 30.147116,117.317810 5.627298,93.133514   C4.562502,92.083298 3.544538,90.978813 2.409258,90.011719   C2.135115,89.778183 1.479951,89.991936 1.000000,90.000000  M120.580780,61.178638   C128.504654,61.178638 136.428543,61.178638 144.567978,61.178638   C144.567978,55.622517 144.567978,50.879314 144.567978,45.702408   C142.351288,45.595009 140.396210,45.419621 138.440964,45.417900   C116.289047,45.398399 94.137108,45.404922 71.985168,45.406017   C68.320953,45.406197 64.638657,45.209404 61.002560,45.531219   C59.766171,45.640640 57.711239,46.985615 57.632946,47.902809   C57.270859,52.144421 57.473034,56.434196 57.473034,61.180679   C67.321617,61.180679 76.462502,61.333168 85.593979,61.106674   C89.319199,61.014275 90.843582,62.223618 90.422920,65.950333   C90.064827,69.122757 91.736511,72.646980 85.828323,73.230179   C76.449333,74.155983 67.139008,76.182472 57.948509,78.369057   C55.147598,79.035446 51.730309,81.202995 50.503166,83.642677   C46.446968,91.706772 50.604832,101.481903 59.242294,103.738495   C67.889877,105.997734 76.830238,107.236664 85.704536,108.477501   C89.174553,108.962700 90.747726,109.915909 90.469803,113.640526   C90.173180,117.615669 90.404854,121.630211 90.405357,125.627548   C90.405785,129.023422 90.405449,132.419281 90.405449,135.765976   C98.150520,135.765976 104.878883,135.765976 112.209885,135.765976   C112.209885,126.636330 112.209885,117.906563 112.209885,109.111374   C117.272568,108.556992 121.757744,108.211845 126.193230,107.539101   C130.628250,106.866417 135.074188,106.098114 139.409149,104.965340   C151.738068,101.743622 152.917206,99.933403 152.647064,87.419350   C152.569000,83.803162 151.305496,81.101952 147.998947,79.937050   C142.690353,78.066818 137.317886,76.211021 131.821762,75.083519   C125.386581,73.763397 118.790047,73.229912 112.374344,72.370049   C112.374344,68.522644 112.374344,65.105850 112.374344,61.178791   C115.021942,61.178791 117.316902,61.178791 120.580780,61.178638  z"/>
<path fill="#FEFCF9" opacity="1.000000" stroke="none" d=" M120.096329,61.178715   C117.316902,61.178791 115.021942,61.178791 112.374344,61.178791   C112.374344,65.105850 112.374344,68.522644 112.374344,72.370049   C118.790047,73.229912 125.386581,73.763397 131.821762,75.083519   C137.317886,76.211021 142.690353,78.066818 147.998947,79.937050   C151.305496,81.101952 152.569000,83.803162 152.647064,87.419350   C152.917206,99.933403 151.738068,101.743622 139.409149,104.965340   C135.074188,106.098114 130.628250,106.866417 126.193230,107.539101   C121.757744,108.211845 117.272568,108.556992 112.209885,109.111374   C112.209885,117.906563 112.209885,126.636330 112.209885,135.765976   C104.878883,135.765976 98.150520,135.765976 90.405449,135.765976   C90.405449,132.419281 90.405785,129.023422 90.405357,125.627548   C90.404854,121.630211 90.173180,117.615669 90.469803,113.640526   C90.747726,109.915909 89.174553,108.962700 85.704536,108.477501   C76.830238,107.236664 67.889877,105.997734 59.242294,103.738495   C50.604832,101.481903 46.446968,91.706772 50.503166,83.642677   C51.730309,81.202995 55.147598,79.035446 57.948509,78.369057   C67.139008,76.182472 76.449333,74.155983 85.828323,73.230179   C91.736511,72.646980 90.064827,69.122757 90.422920,65.950333   C90.843582,62.223618 89.319199,61.014275 85.593979,61.106674   C76.462502,61.333168 67.321617,61.180679 57.473034,61.180679   C57.473034,56.434196 57.270859,52.144421 57.632946,47.902809   C57.711239,46.985615 59.766171,45.640640 61.002560,45.531219   C64.638657,45.209404 68.320953,45.406197 71.985168,45.406017   C94.137108,45.404922 116.289047,45.398399 138.440964,45.417900   C140.396210,45.419621 142.351288,45.595009 144.567978,45.702408   C144.567978,50.879314 144.567978,55.622517 144.567978,61.178638   C136.428543,61.178638 128.504654,61.178638 120.096329,61.178715  M132.299118,97.999252   C137.948761,96.552734 143.932480,95.875114 149.085083,90.981277   C137.230484,83.718231 124.672112,83.533234 111.563591,82.099464   C111.563591,85.364914 111.857620,87.872551 111.440910,90.255936   C111.229088,91.467484 109.783600,93.348053 108.817268,93.397690   C103.051216,93.693886 97.262260,93.544281 90.926941,93.544281   C90.926941,89.496552 90.926941,86.076042 90.926941,82.696121   C76.663353,81.955215 58.690353,86.303223 53.163097,92.453819   C79.063980,102.937309 105.137543,101.944122 132.299118,97.999252  z"/>
<path fill="#D4B35E" opacity="1.000000" stroke="none" d=" M131.877136,98.059341   C105.137543,101.944122 79.063980,102.937309 53.163097,92.453819   C58.690353,86.303223 76.663353,81.955215 90.926941,82.696121   C90.926941,86.076042 90.926941,89.496552 90.926941,93.544281   C97.262260,93.544281 103.051216,93.693886 108.817268,93.397690   C109.783600,93.348053 111.229088,91.467484 111.440910,90.255936   C111.857620,87.872551 111.563591,85.364914 111.563591,82.099464   C124.672112,83.533234 137.230484,83.718231 149.085083,90.981277   C143.932480,95.875114 137.948761,96.552734 131.877136,98.059341  z"/>
</svg>